<?xml version="1.0" standalone="no"?><!DOCTYPE svg PUBLIC "-//W3C//DTD SVG 1.1//EN" "http://www.w3.org/Graphics/SVG/1.1/DTD/svg11.dtd"><svg t="1741680140153" class="icon" viewBox="0 0 1210 1024" version="1.1" xmlns="http://www.w3.org/2000/svg" p-id="13878" xmlns:xlink="http://www.w3.org/1999/xlink" width="236.328125" height="200"><path d="M93.090909 0h1024a93.090909 93.090909 0 0 1 93.090909 93.090909v651.636364a93.090909 93.090909 0 0 1-93.090909 93.090909H93.090909a93.090909 93.090909 0 0 1-93.090909-93.090909V93.090909a93.090909 93.090909 0 0 1 93.090909-93.090909z m670.72 457.541818a46.545455 46.545455 0 0 0 0-77.265454L547.979636 235.054545a46.545455 46.545455 0 0 0-72.564363 38.632728v290.583272a46.545455 46.545455 0 0 0 72.564363 38.632728L763.810909 457.541818z" fill="#001FFF" p-id="13879"></path><path d="M302.545455 930.909091m46.545454 0l468.759273 0q46.545455 0 46.545454 46.545454l0 0q0 46.545455-46.545454 46.545455l-468.759273 0q-46.545455 0-46.545454-46.545455l0 0q0-46.545455 46.545454-46.545454Z" fill="#001FFF" p-id="13880"></path></svg>